{
  "asset": {
    "version": "2.0",
    "generator": "Codex"
  },
  "scene": 0,
  "scenes": [
    {
      "nodes": [
        0
      ]
    }
  ],
  "nodes": [
    {
      "name": "TrafficCarRoot",
      "children": [
        1,
        2,
        3,
        4,
        5,
        6,
        7,
        8,
        9
      ]
    },
    {
      "name": "TrafficBody",
      "mesh": 0,
      "translation": [
        0,
        0.54,
        0
      ],
      "scale": [
        2.2,
        0.78,
        4.5
      ]
    },
    {
      "name": "TrafficCabin",
      "mesh": 1,
      "translation": [
        0,
        0.98,
        -0.06
      ],
      "scale": [
        1.34,
        0.58,
        1.95
      ]
    },
    {
      "name": "TrafficLightLeft",
      "mesh": 2,
      "translation": [
        -0.58,
        0.55,
        -2.05
      ],
      "scale": [
        0.32,
        0.12,
        0.44
      ]
    },
    {
      "name": "TrafficLightRight",
      "mesh": 2,
      "translation": [
        0.58,
        0.55,
        -2.05
      ],
      "scale": [
        0.32,
        0.12,
        0.44
      ]
    },
    {
      "name": "TrafficRearLightLeft",
      "mesh": 3,
      "translation": [
        -0.58,
        0.53,
        2.05
      ],
      "scale": [
        0.22,
        0.1,
        0.28
      ]
    },
    {
      "name": "TrafficRearLightRight",
      "mesh": 3,
      "translation": [
        0.58,
        0.53,
        2.05
      ],
      "scale": [
        0.22,
        0.1,
        0.28
      ]
    },
    {
      "name": "TrafficWheelFrontLeft",
      "mesh": 4,
      "translation": [
        -1,
        0.22,
        -1.45
      ],
      "scale": [
        0.42,
        0.42,
        0.88
      ]
    },
    {
      "name": "TrafficWheelFrontRight",
      "mesh": 4,
      "translation": [
        1,
        0.22,
        -1.45
      ],
      "scale": [
        0.42,
        0.42,
        0.88
      ]
    },
    {
      "name": "TrafficWheelRearLeft",
      "mesh": 4,
      "translation": [
        -1,
        0.22,
        1.45
      ],
      "scale": [
        0.42,
        0.42,
        0.88
      ]
    },
    {
      "name": "TrafficWheelRearRight",
      "mesh": 4,
      "translation": [
        1,
        0.22,
        1.45
      ],
      "scale": [
        0.42,
        0.42,
        0.88
      ]
    }
  ],
  "meshes": [
    {
      "primitives": [
        {
          "attributes": {
            "POSITION": 0,
            "NORMAL": 1
          },
          "material": 0
        }
      ]
    },
    {
      "primitives": [
        {
          "attributes": {
            "POSITION": 0,
            "NORMAL": 1
          },
          "material": 1
        }
      ]
    },
    {
      "primitives": [
        {
          "attributes": {
            "POSITION": 0,
            "NORMAL": 1
          },
          "material": 2
        }
      ]
    },
    {
      "primitives": [
        {
          "attributes": {
            "POSITION": 0,
            "NORMAL": 1
          },
          "material": 3
        }
      ]
    },
    {
      "primitives": [
        {
          "attributes": {
            "POSITION": 0,
            "NORMAL": 1
          },
          "material": 4
        }
      ]
    }
  ],
  "materials": [
    {
      "pbrMetallicRoughness": {
        "baseColorFactor": [
          0.878,
          0.772,
          0.557,
          1
        ],
        "metallicFactor": 0.28,
        "roughnessFactor": 0.5
      }
    },
    {
      "pbrMetallicRoughness": {
        "baseColorFactor": [
          0.498,
          0.38,
          0.251,
          1
        ],
        "metallicFactor": 0.18,
        "roughnessFactor": 0.55
      }
    },
    {
      "pbrMetallicRoughness": {
        "baseColorFactor": [
          1,
          0.968,
          0.906,
          1
        ],
        "metallicFactor": 0.05,
        "roughnessFactor": 0.24
      },
      "emissiveFactor": [
        0.08,
        0.06,
        0.03
      ]
    },
    {
      "pbrMetallicRoughness": {
        "baseColorFactor": [
          0.812,
          0.607,
          0.345,
          1
        ],
        "metallicFactor": 0,
        "roughnessFactor": 0.22
      },
      "emissiveFactor": [
        0.08,
        0.03,
        0.01
      ]
    },
    {
      "pbrMetallicRoughness": {
        "baseColorFactor": [
          0.372,
          0.294,
          0.204,
          1
        ],
        "metallicFactor": 0.04,
        "roughnessFactor": 0.9
      }
    }
  ],
  "accessors": [
    {
      "bufferView": 0,
      "componentType": 5126,
      "count": 36,
      "type": "VEC3",
      "min": [
        -0.5,
        -0.5,
        -0.5
      ],
      "max": [
        0.5,
        0.5,
        0.5
      ]
    },
    {
      "bufferView": 1,
      "componentType": 5126,
      "count": 36,
      "type": "VEC3"
    }
  ],
  "bufferViews": [
    {
      "buffer": 0,
      "byteOffset": 0,
      "byteLength": 432
    },
    {
      "buffer": 0,
      "byteOffset": 432,
      "byteLength": 432
    }
  ],
  "buffers": [
    {
      "byteLength": 864,
      "uri": "data:application/octet-stream;base64,"
    }
  ]
}
